<svg width="200" height="200" viewBox="0 0 200 200" fill="none" xmlns="http://www.w3.org/2000/svg">
  <path d="M100 0C44.8 0 0 44.8 0 100C0 155.2 44.8 200 100 200C155.2 200 200 155.2 200 100C200 44.8 155.2 0 100 0ZM100 180C56.7 180 22 145.3 22 102C22 58.7 56.7 24 100 24C143.3 24 178 58.7 178 102C178 145.3 143.3 180 100 180Z" fill="#0084FF" fill-opacity="0.1"/>
  <path d="M100 44C68.1 44 42 70.1 42 102C42 133.9 68.1 160 100 160C131.9 160 158 133.9 158 102C158 70.1 131.9 44 100 44ZM100 138C81.5 138 66 122.5 66 104C66 85.5 81.5 70 100 70C118.5 70 134 85.5 134 104C134 122.5 118.5 138 100 138Z" fill="#0084FF" fill-opacity="0.1"/>
</svg>
